<mxfile host="app.diagrams.net" modified="2023-06-16T11:33:11.351Z" agent="Mozilla/5.0 (Windows NT 10.0; Win64; x64) AppleWebKit/537.36 (KHTML, like Gecko) Chrome/114.0.0.0 Safari/537.36" etag="TsdRWs7H6QIkX4_Jy1cM" version="21.4.0" type="device">
  <diagram name="Page-1" id="qSaS6gH94cfJFbofjC-u">
    <mxGraphModel dx="1050" dy="891" grid="0" gridSize="10" guides="1" tooltips="1" connect="1" arrows="1" fold="1" page="0" pageScale="1" pageWidth="850" pageHeight="1100" math="0" shadow="0">
      <root>
        <mxCell id="0" />
        <mxCell id="1" parent="0" />
        <mxCell id="TfHmjp1HJ4kTvXtDfK5A-2" value="" style="ellipse;whiteSpace=wrap;html=1;aspect=fixed;" parent="1" vertex="1">
          <mxGeometry x="393" y="-106" width="65" height="65" as="geometry" />
        </mxCell>
        <mxCell id="TfHmjp1HJ4kTvXtDfK5A-3" value="" style="ellipse;whiteSpace=wrap;html=1;aspect=fixed;fillColor=#000000;" parent="1" vertex="1">
          <mxGeometry x="402" y="-97" width="47" height="47" as="geometry" />
        </mxCell>
        <mxCell id="TfHmjp1HJ4kTvXtDfK5A-4" value="" style="ellipse;whiteSpace=wrap;html=1;" parent="1" vertex="1">
          <mxGeometry x="130" y="123" width="89" height="65" as="geometry" />
        </mxCell>
        <mxCell id="TfHmjp1HJ4kTvXtDfK5A-5" value="" style="ellipse;whiteSpace=wrap;html=1;" parent="1" vertex="1">
          <mxGeometry x="130" y="207" width="89" height="65" as="geometry" />
        </mxCell>
        <mxCell id="TfHmjp1HJ4kTvXtDfK5A-6" value="" style="ellipse;whiteSpace=wrap;html=1;" parent="1" vertex="1">
          <mxGeometry x="616" y="123" width="89" height="65" as="geometry" />
        </mxCell>
        <mxCell id="TfHmjp1HJ4kTvXtDfK5A-7" value="" style="ellipse;whiteSpace=wrap;html=1;" parent="1" vertex="1">
          <mxGeometry x="130" y="291" width="89" height="65" as="geometry" />
        </mxCell>
        <mxCell id="TfHmjp1HJ4kTvXtDfK5A-8" value="" style="ellipse;whiteSpace=wrap;html=1;" parent="1" vertex="1">
          <mxGeometry x="130" y="375" width="89" height="65" as="geometry" />
        </mxCell>
        <mxCell id="TfHmjp1HJ4kTvXtDfK5A-9" value="" style="ellipse;whiteSpace=wrap;html=1;" parent="1" vertex="1">
          <mxGeometry x="130" y="459" width="89" height="65" as="geometry" />
        </mxCell>
        <mxCell id="TfHmjp1HJ4kTvXtDfK5A-10" value="" style="ellipse;whiteSpace=wrap;html=1;" parent="1" vertex="1">
          <mxGeometry x="130" y="543" width="89" height="65" as="geometry" />
        </mxCell>
        <mxCell id="TfHmjp1HJ4kTvXtDfK5A-11" value="" style="rhombus;whiteSpace=wrap;html=1;" parent="1" vertex="1">
          <mxGeometry x="146.5" y="633" width="56" height="57" as="geometry" />
        </mxCell>
        <mxCell id="TfHmjp1HJ4kTvXtDfK5A-12" value="Provjera" style="text;html=1;strokeColor=none;fillColor=none;align=center;verticalAlign=middle;whiteSpace=wrap;rounded=0;" parent="1" vertex="1">
          <mxGeometry x="144.5" y="646.5" width="60" height="30" as="geometry" />
        </mxCell>
        <mxCell id="TfHmjp1HJ4kTvXtDfK5A-13" value="" style="ellipse;whiteSpace=wrap;html=1;" parent="1" vertex="1">
          <mxGeometry x="130" y="713" width="89" height="65" as="geometry" />
        </mxCell>
        <mxCell id="TfHmjp1HJ4kTvXtDfK5A-14" value="" style="ellipse;whiteSpace=wrap;html=1;" parent="1" vertex="1">
          <mxGeometry x="130" y="797" width="89" height="65" as="geometry" />
        </mxCell>
        <mxCell id="TfHmjp1HJ4kTvXtDfK5A-15" value="" style="rhombus;whiteSpace=wrap;html=1;" parent="1" vertex="1">
          <mxGeometry x="146.5" y="881" width="56" height="57" as="geometry" />
        </mxCell>
        <mxCell id="TfHmjp1HJ4kTvXtDfK5A-16" value="Provjera" style="text;html=1;strokeColor=none;fillColor=none;align=center;verticalAlign=middle;whiteSpace=wrap;rounded=0;" parent="1" vertex="1">
          <mxGeometry x="144.5" y="894.5" width="60" height="30" as="geometry" />
        </mxCell>
        <mxCell id="TfHmjp1HJ4kTvXtDfK5A-17" value="" style="ellipse;whiteSpace=wrap;html=1;" parent="1" vertex="1">
          <mxGeometry x="130" y="951" width="89" height="65" as="geometry" />
        </mxCell>
        <mxCell id="TfHmjp1HJ4kTvXtDfK5A-18" value="" style="ellipse;whiteSpace=wrap;html=1;" parent="1" vertex="1">
          <mxGeometry x="130" y="1035" width="89" height="65" as="geometry" />
        </mxCell>
        <mxCell id="TfHmjp1HJ4kTvXtDfK5A-22" value="" style="ellipse;whiteSpace=wrap;html=1;aspect=fixed;" parent="1" vertex="1">
          <mxGeometry x="393" y="1035" width="65" height="65" as="geometry" />
        </mxCell>
        <mxCell id="TfHmjp1HJ4kTvXtDfK5A-26" value="" style="ellipse;whiteSpace=wrap;html=1;aspect=fixed;fillColor=#000000;" parent="1" vertex="1">
          <mxGeometry x="400" y="1042.5" width="50" height="50" as="geometry" />
        </mxCell>
        <mxCell id="TfHmjp1HJ4kTvXtDfK5A-27" value="" style="ellipse;whiteSpace=wrap;html=1;" parent="1" vertex="1">
          <mxGeometry x="616" y="207" width="89" height="65" as="geometry" />
        </mxCell>
        <mxCell id="TfHmjp1HJ4kTvXtDfK5A-28" value="" style="ellipse;whiteSpace=wrap;html=1;" parent="1" vertex="1">
          <mxGeometry x="616" y="291" width="89" height="65" as="geometry" />
        </mxCell>
        <mxCell id="TfHmjp1HJ4kTvXtDfK5A-29" value="" style="ellipse;whiteSpace=wrap;html=1;" parent="1" vertex="1">
          <mxGeometry x="616" y="375" width="89" height="65" as="geometry" />
        </mxCell>
        <mxCell id="TfHmjp1HJ4kTvXtDfK5A-30" value="" style="ellipse;whiteSpace=wrap;html=1;" parent="1" vertex="1">
          <mxGeometry x="616" y="459" width="89" height="65" as="geometry" />
        </mxCell>
        <mxCell id="TfHmjp1HJ4kTvXtDfK5A-31" value="" style="ellipse;whiteSpace=wrap;html=1;" parent="1" vertex="1">
          <mxGeometry x="616" y="543" width="89" height="65" as="geometry" />
        </mxCell>
        <mxCell id="TfHmjp1HJ4kTvXtDfK5A-32" value="" style="endArrow=classic;html=1;rounded=0;exitX=0.5;exitY=1;exitDx=0;exitDy=0;entryX=0.5;entryY=0;entryDx=0;entryDy=0;" parent="1" source="TfHmjp1HJ4kTvXtDfK5A-4" target="TfHmjp1HJ4kTvXtDfK5A-5" edge="1">
          <mxGeometry width="50" height="50" relative="1" as="geometry">
            <mxPoint x="393" y="211" as="sourcePoint" />
            <mxPoint x="443" y="161" as="targetPoint" />
          </mxGeometry>
        </mxCell>
        <mxCell id="TfHmjp1HJ4kTvXtDfK5A-33" value="" style="endArrow=classic;html=1;rounded=0;exitX=0.5;exitY=1;exitDx=0;exitDy=0;entryX=0.5;entryY=0;entryDx=0;entryDy=0;" parent="1" source="TfHmjp1HJ4kTvXtDfK5A-5" target="TfHmjp1HJ4kTvXtDfK5A-7" edge="1">
          <mxGeometry width="50" height="50" relative="1" as="geometry">
            <mxPoint x="358" y="362" as="sourcePoint" />
            <mxPoint x="408" y="312" as="targetPoint" />
          </mxGeometry>
        </mxCell>
        <mxCell id="TfHmjp1HJ4kTvXtDfK5A-34" value="" style="endArrow=classic;html=1;rounded=0;exitX=0.5;exitY=1;exitDx=0;exitDy=0;entryX=0.5;entryY=0;entryDx=0;entryDy=0;" parent="1" source="TfHmjp1HJ4kTvXtDfK5A-7" target="TfHmjp1HJ4kTvXtDfK5A-8" edge="1">
          <mxGeometry width="50" height="50" relative="1" as="geometry">
            <mxPoint x="312" y="341" as="sourcePoint" />
            <mxPoint x="362" y="291" as="targetPoint" />
          </mxGeometry>
        </mxCell>
        <mxCell id="TfHmjp1HJ4kTvXtDfK5A-35" value="" style="endArrow=classic;html=1;rounded=0;exitX=0.5;exitY=1;exitDx=0;exitDy=0;entryX=0.5;entryY=0;entryDx=0;entryDy=0;" parent="1" source="TfHmjp1HJ4kTvXtDfK5A-13" target="TfHmjp1HJ4kTvXtDfK5A-14" edge="1">
          <mxGeometry width="50" height="50" relative="1" as="geometry">
            <mxPoint x="302" y="593" as="sourcePoint" />
            <mxPoint x="352" y="543" as="targetPoint" />
          </mxGeometry>
        </mxCell>
        <mxCell id="TfHmjp1HJ4kTvXtDfK5A-36" value="" style="endArrow=classic;html=1;rounded=0;exitX=0.5;exitY=1;exitDx=0;exitDy=0;entryX=0.5;entryY=0;entryDx=0;entryDy=0;" parent="1" source="TfHmjp1HJ4kTvXtDfK5A-8" target="TfHmjp1HJ4kTvXtDfK5A-9" edge="1">
          <mxGeometry width="50" height="50" relative="1" as="geometry">
            <mxPoint x="340" y="406" as="sourcePoint" />
            <mxPoint x="390" y="356" as="targetPoint" />
          </mxGeometry>
        </mxCell>
        <mxCell id="TfHmjp1HJ4kTvXtDfK5A-37" value="" style="endArrow=classic;html=1;rounded=0;exitX=0.5;exitY=1;exitDx=0;exitDy=0;" parent="1" source="TfHmjp1HJ4kTvXtDfK5A-9" target="TfHmjp1HJ4kTvXtDfK5A-10" edge="1">
          <mxGeometry width="50" height="50" relative="1" as="geometry">
            <mxPoint x="334" y="332" as="sourcePoint" />
            <mxPoint x="384" y="282" as="targetPoint" />
          </mxGeometry>
        </mxCell>
        <mxCell id="TfHmjp1HJ4kTvXtDfK5A-38" value="" style="endArrow=classic;html=1;rounded=0;exitX=0.5;exitY=1;exitDx=0;exitDy=0;entryX=0.5;entryY=0;entryDx=0;entryDy=0;" parent="1" source="TfHmjp1HJ4kTvXtDfK5A-10" target="TfHmjp1HJ4kTvXtDfK5A-11" edge="1">
          <mxGeometry width="50" height="50" relative="1" as="geometry">
            <mxPoint x="334" y="332" as="sourcePoint" />
            <mxPoint x="384" y="282" as="targetPoint" />
          </mxGeometry>
        </mxCell>
        <mxCell id="TfHmjp1HJ4kTvXtDfK5A-39" value="" style="endArrow=classic;html=1;rounded=0;exitX=0.5;exitY=1;exitDx=0;exitDy=0;entryX=0.5;entryY=0;entryDx=0;entryDy=0;" parent="1" source="TfHmjp1HJ4kTvXtDfK5A-11" target="TfHmjp1HJ4kTvXtDfK5A-13" edge="1">
          <mxGeometry width="50" height="50" relative="1" as="geometry">
            <mxPoint x="247" y="709" as="sourcePoint" />
            <mxPoint x="389" y="809" as="targetPoint" />
          </mxGeometry>
        </mxCell>
        <mxCell id="TfHmjp1HJ4kTvXtDfK5A-40" value="" style="endArrow=classic;html=1;rounded=0;exitX=0.5;exitY=1;exitDx=0;exitDy=0;entryX=0.5;entryY=0;entryDx=0;entryDy=0;" parent="1" source="TfHmjp1HJ4kTvXtDfK5A-14" target="TfHmjp1HJ4kTvXtDfK5A-15" edge="1">
          <mxGeometry width="50" height="50" relative="1" as="geometry">
            <mxPoint x="620" y="813" as="sourcePoint" />
            <mxPoint x="670" y="763" as="targetPoint" />
          </mxGeometry>
        </mxCell>
        <mxCell id="TfHmjp1HJ4kTvXtDfK5A-41" value="" style="endArrow=classic;html=1;rounded=0;exitX=0.494;exitY=1.412;exitDx=0;exitDy=0;exitPerimeter=0;entryX=0.5;entryY=0;entryDx=0;entryDy=0;" parent="1" source="TfHmjp1HJ4kTvXtDfK5A-16" target="TfHmjp1HJ4kTvXtDfK5A-17" edge="1">
          <mxGeometry width="50" height="50" relative="1" as="geometry">
            <mxPoint x="215" y="940" as="sourcePoint" />
            <mxPoint x="339" y="999" as="targetPoint" />
          </mxGeometry>
        </mxCell>
        <mxCell id="TfHmjp1HJ4kTvXtDfK5A-42" value="" style="endArrow=classic;html=1;rounded=0;exitX=0.5;exitY=1;exitDx=0;exitDy=0;entryX=0.5;entryY=0;entryDx=0;entryDy=0;" parent="1" source="TfHmjp1HJ4kTvXtDfK5A-17" target="TfHmjp1HJ4kTvXtDfK5A-18" edge="1">
          <mxGeometry width="50" height="50" relative="1" as="geometry">
            <mxPoint x="336" y="868" as="sourcePoint" />
            <mxPoint x="386" y="818" as="targetPoint" />
          </mxGeometry>
        </mxCell>
        <mxCell id="TfHmjp1HJ4kTvXtDfK5A-43" value="" style="endArrow=classic;html=1;rounded=0;exitX=0.5;exitY=1;exitDx=0;exitDy=0;" parent="1" source="TfHmjp1HJ4kTvXtDfK5A-6" target="TfHmjp1HJ4kTvXtDfK5A-27" edge="1">
          <mxGeometry width="50" height="50" relative="1" as="geometry">
            <mxPoint x="431" y="348.5" as="sourcePoint" />
            <mxPoint x="481" y="298.5" as="targetPoint" />
          </mxGeometry>
        </mxCell>
        <mxCell id="TfHmjp1HJ4kTvXtDfK5A-44" value="" style="endArrow=classic;html=1;rounded=0;exitX=0.5;exitY=1;exitDx=0;exitDy=0;" parent="1" source="TfHmjp1HJ4kTvXtDfK5A-29" target="TfHmjp1HJ4kTvXtDfK5A-30" edge="1">
          <mxGeometry width="50" height="50" relative="1" as="geometry">
            <mxPoint x="441" y="358.5" as="sourcePoint" />
            <mxPoint x="491" y="308.5" as="targetPoint" />
          </mxGeometry>
        </mxCell>
        <mxCell id="TfHmjp1HJ4kTvXtDfK5A-45" value="" style="endArrow=classic;html=1;rounded=0;exitX=0.5;exitY=1;exitDx=0;exitDy=0;entryX=0.5;entryY=0;entryDx=0;entryDy=0;" parent="1" source="TfHmjp1HJ4kTvXtDfK5A-27" target="TfHmjp1HJ4kTvXtDfK5A-28" edge="1">
          <mxGeometry width="50" height="50" relative="1" as="geometry">
            <mxPoint x="451" y="368.5" as="sourcePoint" />
            <mxPoint x="501" y="318.5" as="targetPoint" />
          </mxGeometry>
        </mxCell>
        <mxCell id="TfHmjp1HJ4kTvXtDfK5A-46" value="" style="endArrow=classic;html=1;rounded=0;exitX=0.5;exitY=1;exitDx=0;exitDy=0;entryX=0.5;entryY=0;entryDx=0;entryDy=0;" parent="1" source="TfHmjp1HJ4kTvXtDfK5A-28" target="TfHmjp1HJ4kTvXtDfK5A-29" edge="1">
          <mxGeometry width="50" height="50" relative="1" as="geometry">
            <mxPoint x="451" y="368.5" as="sourcePoint" />
            <mxPoint x="501" y="318.5" as="targetPoint" />
          </mxGeometry>
        </mxCell>
        <mxCell id="TfHmjp1HJ4kTvXtDfK5A-47" value="" style="endArrow=classic;html=1;rounded=0;entryX=0;entryY=0.5;entryDx=0;entryDy=0;" parent="1" target="TfHmjp1HJ4kTvXtDfK5A-10" edge="1">
          <mxGeometry width="50" height="50" relative="1" as="geometry">
            <mxPoint x="146" y="662" as="sourcePoint" />
            <mxPoint x="452" y="493" as="targetPoint" />
            <Array as="points">
              <mxPoint x="101" y="662" />
              <mxPoint x="101" y="576" />
            </Array>
          </mxGeometry>
        </mxCell>
        <mxCell id="TfHmjp1HJ4kTvXtDfK5A-48" value="" style="endArrow=classic;html=1;rounded=0;exitX=0.5;exitY=1;exitDx=0;exitDy=0;entryX=0.5;entryY=0;entryDx=0;entryDy=0;" parent="1" source="TfHmjp1HJ4kTvXtDfK5A-30" target="TfHmjp1HJ4kTvXtDfK5A-31" edge="1">
          <mxGeometry width="50" height="50" relative="1" as="geometry">
            <mxPoint x="412" y="553" as="sourcePoint" />
            <mxPoint x="462" y="503" as="targetPoint" />
          </mxGeometry>
        </mxCell>
        <mxCell id="TfHmjp1HJ4kTvXtDfK5A-49" value="" style="endArrow=classic;html=1;rounded=0;exitX=0;exitY=0.5;exitDx=0;exitDy=0;entryX=0;entryY=0.5;entryDx=0;entryDy=0;" parent="1" target="TfHmjp1HJ4kTvXtDfK5A-14" edge="1">
          <mxGeometry width="50" height="50" relative="1" as="geometry">
            <mxPoint x="146.5" y="910" as="sourcePoint" />
            <mxPoint x="131.5" y="824" as="targetPoint" />
            <Array as="points">
              <mxPoint x="102.5" y="910" />
              <mxPoint x="103" y="830" />
            </Array>
          </mxGeometry>
        </mxCell>
        <mxCell id="TfHmjp1HJ4kTvXtDfK5A-50" value="Priprema računa" style="text;html=1;strokeColor=none;fillColor=none;align=center;verticalAlign=middle;whiteSpace=wrap;rounded=0;" parent="1" vertex="1">
          <mxGeometry x="144.5" y="140.5" width="60" height="30" as="geometry" />
        </mxCell>
        <mxCell id="TfHmjp1HJ4kTvXtDfK5A-51" value="Elektroničko potpisivanje poruke" style="text;html=1;strokeColor=none;fillColor=none;align=center;verticalAlign=middle;whiteSpace=wrap;rounded=0;" parent="1" vertex="1">
          <mxGeometry x="144.5" y="392.5" width="60" height="30" as="geometry" />
        </mxCell>
        <mxCell id="TfHmjp1HJ4kTvXtDfK5A-52" value="Izračun zaštitnog koda" style="text;html=1;strokeColor=none;fillColor=none;align=center;verticalAlign=middle;whiteSpace=wrap;rounded=0;" parent="1" vertex="1">
          <mxGeometry x="144.5" y="224.5" width="60" height="30" as="geometry" />
        </mxCell>
        <mxCell id="TfHmjp1HJ4kTvXtDfK5A-53" value="Inicializiranje SSL komunikacije" style="text;html=1;strokeColor=none;fillColor=none;align=center;verticalAlign=middle;whiteSpace=wrap;rounded=0;" parent="1" vertex="1">
          <mxGeometry x="144.5" y="476.5" width="60" height="30" as="geometry" />
        </mxCell>
        <mxCell id="TfHmjp1HJ4kTvXtDfK5A-54" value="Primanje poziva" style="text;html=1;strokeColor=none;fillColor=none;align=center;verticalAlign=middle;whiteSpace=wrap;rounded=0;" parent="1" vertex="1">
          <mxGeometry x="144.5" y="814.5" width="60" height="30" as="geometry" />
        </mxCell>
        <mxCell id="TfHmjp1HJ4kTvXtDfK5A-55" value="Uspostava komunikacije" style="text;html=1;strokeColor=none;fillColor=none;align=center;verticalAlign=middle;whiteSpace=wrap;rounded=0;" parent="1" vertex="1">
          <mxGeometry x="144.5" y="560" width="60" height="30" as="geometry" />
        </mxCell>
        <mxCell id="TfHmjp1HJ4kTvXtDfK5A-56" value="Priprema XML poruke zahtjeva" style="text;html=1;strokeColor=none;fillColor=none;align=center;verticalAlign=middle;whiteSpace=wrap;rounded=0;" parent="1" vertex="1">
          <mxGeometry x="144.5" y="308.5" width="60" height="30" as="geometry" />
        </mxCell>
        <mxCell id="TfHmjp1HJ4kTvXtDfK5A-57" value="Poziv servisa" style="text;html=1;strokeColor=none;fillColor=none;align=center;verticalAlign=middle;whiteSpace=wrap;rounded=0;" parent="1" vertex="1">
          <mxGeometry x="142.5" y="730.5" width="60" height="30" as="geometry" />
        </mxCell>
        <mxCell id="TfHmjp1HJ4kTvXtDfK5A-58" value="Provjera elektroničkog potpisa" style="text;html=1;strokeColor=none;fillColor=none;align=center;verticalAlign=middle;whiteSpace=wrap;rounded=0;" parent="1" vertex="1">
          <mxGeometry x="144.5" y="968.5" width="60" height="30" as="geometry" />
        </mxCell>
        <mxCell id="TfHmjp1HJ4kTvXtDfK5A-59" value="Izrada računa" style="text;html=1;strokeColor=none;fillColor=none;align=center;verticalAlign=middle;whiteSpace=wrap;rounded=0;" parent="1" vertex="1">
          <mxGeometry x="142.5" y="1052.5" width="60" height="30" as="geometry" />
        </mxCell>
        <mxCell id="TfHmjp1HJ4kTvXtDfK5A-60" value="Obrada poruke zahtjeva" style="text;html=1;strokeColor=none;fillColor=none;align=center;verticalAlign=middle;whiteSpace=wrap;rounded=0;" parent="1" vertex="1">
          <mxGeometry x="630.5" y="140.5" width="60" height="30" as="geometry" />
        </mxCell>
        <mxCell id="TfHmjp1HJ4kTvXtDfK5A-61" value="Uspostava komunikacije" style="text;html=1;strokeColor=none;fillColor=none;align=center;verticalAlign=middle;whiteSpace=wrap;rounded=0;" parent="1" vertex="1">
          <mxGeometry x="630.5" y="224.5" width="60" height="30" as="geometry" />
        </mxCell>
        <mxCell id="TfHmjp1HJ4kTvXtDfK5A-62" value="Primanje poziva klijenta" style="text;html=1;strokeColor=none;fillColor=none;align=center;verticalAlign=middle;whiteSpace=wrap;rounded=0;" parent="1" vertex="1">
          <mxGeometry x="630.5" y="308.5" width="60" height="30" as="geometry" />
        </mxCell>
        <mxCell id="TfHmjp1HJ4kTvXtDfK5A-63" value="Obrada poruke zahtjeva" style="text;html=1;strokeColor=none;fillColor=none;align=center;verticalAlign=middle;whiteSpace=wrap;rounded=0;" parent="1" vertex="1">
          <mxGeometry x="630.5" y="392.5" width="60" height="30" as="geometry" />
        </mxCell>
        <mxCell id="TfHmjp1HJ4kTvXtDfK5A-64" value="Priprema XML poruke" style="text;html=1;strokeColor=none;fillColor=none;align=center;verticalAlign=middle;whiteSpace=wrap;rounded=0;" parent="1" vertex="1">
          <mxGeometry x="630.5" y="476.5" width="60" height="30" as="geometry" />
        </mxCell>
        <mxCell id="TfHmjp1HJ4kTvXtDfK5A-65" value="Elektroničko potpisivanje" style="text;html=1;strokeColor=none;fillColor=none;align=center;verticalAlign=middle;whiteSpace=wrap;rounded=0;" parent="1" vertex="1">
          <mxGeometry x="630.5" y="560.5" width="60" height="30" as="geometry" />
        </mxCell>
        <mxCell id="TfHmjp1HJ4kTvXtDfK5A-66" value="" style="endArrow=classic;html=1;rounded=0;exitX=1;exitY=0.5;exitDx=0;exitDy=0;entryX=0;entryY=0.5;entryDx=0;entryDy=0;" parent="1" source="TfHmjp1HJ4kTvXtDfK5A-9" target="TfHmjp1HJ4kTvXtDfK5A-70" edge="1">
          <mxGeometry width="50" height="50" relative="1" as="geometry">
            <mxPoint x="667" y="671" as="sourcePoint" />
            <mxPoint x="460" y="360" as="targetPoint" />
            <Array as="points">
              <mxPoint x="268" y="492" />
              <mxPoint x="268" y="71" />
            </Array>
          </mxGeometry>
        </mxCell>
        <mxCell id="TfHmjp1HJ4kTvXtDfK5A-70" value="" style="ellipse;whiteSpace=wrap;html=1;" parent="1" vertex="1">
          <mxGeometry x="616" y="38" width="89" height="65" as="geometry" />
        </mxCell>
        <mxCell id="TfHmjp1HJ4kTvXtDfK5A-71" value="Uspostava komunikacije" style="text;html=1;strokeColor=none;fillColor=none;align=center;verticalAlign=middle;whiteSpace=wrap;rounded=0;" parent="1" vertex="1">
          <mxGeometry x="630.5" y="55.5" width="60" height="30" as="geometry" />
        </mxCell>
        <mxCell id="TfHmjp1HJ4kTvXtDfK5A-72" value="" style="endArrow=classic;html=1;rounded=0;exitX=0.5;exitY=1;exitDx=0;exitDy=0;entryX=0.5;entryY=0;entryDx=0;entryDy=0;" parent="1" source="TfHmjp1HJ4kTvXtDfK5A-70" target="TfHmjp1HJ4kTvXtDfK5A-6" edge="1">
          <mxGeometry width="50" height="50" relative="1" as="geometry">
            <mxPoint x="741" y="310" as="sourcePoint" />
            <mxPoint x="791" y="260" as="targetPoint" />
          </mxGeometry>
        </mxCell>
        <mxCell id="TfHmjp1HJ4kTvXtDfK5A-73" value="" style="endArrow=classic;html=1;rounded=0;exitX=1;exitY=0.5;exitDx=0;exitDy=0;entryX=0;entryY=0.5;entryDx=0;entryDy=0;" parent="1" source="TfHmjp1HJ4kTvXtDfK5A-12" target="TfHmjp1HJ4kTvXtDfK5A-27" edge="1">
          <mxGeometry width="50" height="50" relative="1" as="geometry">
            <mxPoint x="721" y="448" as="sourcePoint" />
            <mxPoint x="771" y="398" as="targetPoint" />
            <Array as="points">
              <mxPoint x="300" y="662" />
              <mxPoint x="300" y="244" />
            </Array>
          </mxGeometry>
        </mxCell>
        <mxCell id="TfHmjp1HJ4kTvXtDfK5A-74" value="" style="endArrow=classic;html=1;rounded=0;exitX=1;exitY=0.5;exitDx=0;exitDy=0;entryX=0;entryY=0.5;entryDx=0;entryDy=0;" parent="1" source="TfHmjp1HJ4kTvXtDfK5A-13" target="TfHmjp1HJ4kTvXtDfK5A-28" edge="1">
          <mxGeometry width="50" height="50" relative="1" as="geometry">
            <mxPoint x="723" y="641" as="sourcePoint" />
            <mxPoint x="773" y="591" as="targetPoint" />
            <Array as="points">
              <mxPoint x="330" y="746" />
              <mxPoint x="330" y="324" />
            </Array>
          </mxGeometry>
        </mxCell>
        <mxCell id="TfHmjp1HJ4kTvXtDfK5A-75" value="" style="endArrow=classic;html=1;rounded=0;exitX=0.5;exitY=1;exitDx=0;exitDy=0;entryX=1;entryY=0.5;entryDx=0;entryDy=0;" parent="1" source="TfHmjp1HJ4kTvXtDfK5A-31" target="TfHmjp1HJ4kTvXtDfK5A-16" edge="1">
          <mxGeometry width="50" height="50" relative="1" as="geometry">
            <mxPoint x="818" y="695" as="sourcePoint" />
            <mxPoint x="464" y="923" as="targetPoint" />
            <Array as="points">
              <mxPoint x="652" y="903" />
            </Array>
          </mxGeometry>
        </mxCell>
        <mxCell id="TfHmjp1HJ4kTvXtDfK5A-76" value="" style="endArrow=classic;html=1;rounded=0;exitX=1;exitY=0.5;exitDx=0;exitDy=0;" parent="1" source="TfHmjp1HJ4kTvXtDfK5A-18" edge="1">
          <mxGeometry width="50" height="50" relative="1" as="geometry">
            <mxPoint x="774" y="1005" as="sourcePoint" />
            <mxPoint x="393" y="1068" as="targetPoint" />
          </mxGeometry>
        </mxCell>
        <mxCell id="TfHmjp1HJ4kTvXtDfK5A-77" value="" style="endArrow=classic;html=1;rounded=0;exitX=0.5;exitY=1;exitDx=0;exitDy=0;entryX=0.5;entryY=0;entryDx=0;entryDy=0;" parent="1" source="TfHmjp1HJ4kTvXtDfK5A-2" target="TfHmjp1HJ4kTvXtDfK5A-4" edge="1">
          <mxGeometry width="50" height="50" relative="1" as="geometry">
            <mxPoint x="1106" y="184" as="sourcePoint" />
            <mxPoint x="1156" y="134" as="targetPoint" />
            <Array as="points">
              <mxPoint x="426" y="1" />
              <mxPoint x="175" y="1" />
            </Array>
          </mxGeometry>
        </mxCell>
        <mxCell id="TfHmjp1HJ4kTvXtDfK5A-78" value="" style="endArrow=classic;html=1;rounded=0;exitX=0.5;exitY=1;exitDx=0;exitDy=0;entryX=0.5;entryY=0;entryDx=0;entryDy=0;" parent="1" source="TfHmjp1HJ4kTvXtDfK5A-2" target="TfHmjp1HJ4kTvXtDfK5A-70" edge="1">
          <mxGeometry width="50" height="50" relative="1" as="geometry">
            <mxPoint x="322" y="102" as="sourcePoint" />
            <mxPoint x="372" y="52" as="targetPoint" />
            <Array as="points">
              <mxPoint x="426" y="1" />
              <mxPoint x="661" />
            </Array>
          </mxGeometry>
        </mxCell>
        <mxCell id="TfHmjp1HJ4kTvXtDfK5A-84" value="" style="endArrow=none;dashed=1;html=1;dashPattern=1 3;strokeWidth=2;rounded=0;" parent="1" edge="1">
          <mxGeometry width="50" height="50" relative="1" as="geometry">
            <mxPoint x="425" y="-207" as="sourcePoint" />
            <mxPoint x="425" y="1127" as="targetPoint" />
          </mxGeometry>
        </mxCell>
        <mxCell id="TfHmjp1HJ4kTvXtDfK5A-85" value="" style="endArrow=none;html=1;rounded=0;" parent="1" edge="1">
          <mxGeometry width="50" height="50" relative="1" as="geometry">
            <mxPoint y="-138" as="sourcePoint" />
            <mxPoint x="850" y="-138" as="targetPoint" />
          </mxGeometry>
        </mxCell>
        <mxCell id="TfHmjp1HJ4kTvXtDfK5A-86" value="Naplatni uređaj/proces fisikalizacije" style="text;html=1;strokeColor=none;fillColor=none;align=center;verticalAlign=middle;whiteSpace=wrap;rounded=0;" parent="1" vertex="1">
          <mxGeometry x="118" y="-188" width="224" height="30" as="geometry" />
        </mxCell>
        <mxCell id="TfHmjp1HJ4kTvXtDfK5A-87" value="Sustav porezne uprave" style="text;html=1;strokeColor=none;fillColor=none;align=center;verticalAlign=middle;whiteSpace=wrap;rounded=0;" parent="1" vertex="1">
          <mxGeometry x="534" y="-188" width="173" height="30" as="geometry" />
        </mxCell>
      </root>
    </mxGraphModel>
  </diagram>
</mxfile>
